<svg width="1265" height="199" viewBox="0 0 1265 199" fill="none" xmlns="http://www.w3.org/2000/svg">
<path d="M108.782 156.088H71.068L43.382 100.498H31.828V156.088H0V3.48799H44.69C68.888 3.48799 80.442 6.53999 89.598 12.862C102.678 22.018 107.038 36.406 107.038 49.486C107.038 71.722 94.394 86.328 76.954 93.958L108.782 156.088ZM31.828 73.248H46.87C54.282 73.248 59.732 72.376 64.31 69.76C69.978 66.49 72.594 61.694 72.594 53.628C72.594 44.472 69.324 38.804 64.746 35.97C61.04 33.572 54.5 32.264 46.87 32.264H31.828V73.248Z" fill="white"/>
<path d="M224.336 113.578H151.96C153.05 127.966 161.334 132.762 172.67 132.762C180.3 132.762 187.712 130.146 189.892 122.516H224.118C221.502 140.174 204.716 157.832 172.888 157.832C135.61 157.832 116.208 134.288 116.208 106.82C116.208 78.698 136.264 55.154 172.67 55.154C202.1 55.154 224.336 70.414 224.336 111.616V113.578ZM153.268 93.958H190.11C188.584 85.456 183.134 79.134 172.67 79.134C164.386 79.134 156.538 83.058 153.268 93.958Z" fill="white"/>
<path d="M282.289 156.088H248.717V86.764H235.419V57.988H248.717V45.344C248.717 17.44 263.323 0 290.137 0C296.895 0 300.601 1.09 303.217 2.61599V23.762C301.037 23.326 299.075 23.108 297.113 23.108C285.341 23.108 282.289 32.264 282.289 47.96V57.988H302.345V86.764H282.289V156.088Z" fill="white"/>
<path d="M418.7 113.578H346.324C347.414 127.966 355.698 132.762 367.034 132.762C374.664 132.762 382.076 130.146 384.256 122.516H418.482C415.866 140.174 399.08 157.832 367.252 157.832C329.974 157.832 310.572 134.288 310.572 106.82C310.572 78.698 330.628 55.154 367.034 55.154C396.464 55.154 418.7 70.414 418.7 111.616V113.578ZM347.632 93.958H384.474C382.948 85.456 377.498 79.134 367.034 79.134C358.75 79.134 350.902 83.058 347.632 93.958Z" fill="white"/>
<path d="M682.874 124.478C682.874 117.502 677.424 113.578 669.576 113.578C662.6 113.578 655.842 116.848 655.842 124.914C655.842 132.108 661.074 135.814 668.704 135.814C676.77 135.814 682.874 131.89 682.874 124.478ZM716.446 156.088H682.874V146.06C679.386 150.42 670.666 157.832 654.098 157.832C630.772 157.832 620.09 143.008 620.09 126.44C620.09 108.564 632.734 94.176 657.368 94.176C666.96 94.176 675.898 95.702 682.438 102.46V95.484C682.438 84.584 681.13 78.044 669.14 78.044C659.548 78.044 657.586 82.186 656.714 87.418H624.668C627.066 71.286 636.658 55.154 670.884 55.154C706.854 55.154 716.446 73.03 716.446 96.574V156.088Z" fill="white"/>
<path d="M771.952 156.088H738.38V0H771.952V156.088Z" fill="white"/>
<path d="M892.493 156.088H797.881V3.48799H831.453V127.094H892.493V156.088Z" fill="white"/>
<path d="M1013.85 106.602C1013.85 132.98 994.23 157.832 956.516 157.832C918.802 157.832 899.182 132.98 899.182 106.602C899.182 80.224 918.802 55.154 956.516 55.154C994.23 55.154 1013.85 80.224 1013.85 106.602ZM956.516 131.672C970.686 131.672 978.098 122.734 978.098 106.602C978.098 90.688 970.686 81.314 956.516 81.314C942.346 81.314 934.934 90.688 934.934 106.602C934.934 122.734 942.346 131.672 956.516 131.672Z" fill="white"/>
<path d="M1139.45 106.602C1139.45 132.98 1119.83 157.832 1082.12 157.832C1044.4 157.832 1024.78 132.98 1024.78 106.602C1024.78 80.224 1044.4 55.154 1082.12 55.154C1119.83 55.154 1139.45 80.224 1139.45 106.602ZM1082.12 131.672C1096.29 131.672 1103.7 122.734 1103.7 106.602C1103.7 90.688 1096.29 81.314 1082.12 81.314C1067.95 81.314 1060.54 90.688 1060.54 106.602C1060.54 122.734 1067.95 131.672 1082.12 131.672Z" fill="white"/>
<path d="M1189.85 198.162H1156.27V57.988H1189.85V65.4C1196.6 59.078 1205.76 55.154 1217.75 55.154C1247.83 55.154 1264.18 79.57 1264.18 106.384C1264.18 130.364 1250.89 157.832 1218.4 157.832C1205.98 157.832 1196.6 153.908 1189.85 147.368V198.162ZM1208.16 131.672C1222.76 131.672 1228.43 119.464 1228.43 105.73C1228.43 90.688 1221.67 79.788 1208.16 79.788C1196.17 79.788 1187.45 88.29 1187.45 105.948C1187.45 123.388 1195.95 131.672 1208.16 131.672Z" fill="white"/>
<path d="M435.432 58.088H469.432V156.088H435.432V58.088Z" fill="white"/>
<path d="M518.432 79.088C518.432 90.686 509.03 100.088 497.432 100.088C485.834 100.088 476.432 90.686 476.432 79.088C476.432 67.49 485.834 58.088 497.432 58.088C509.03 58.088 518.432 67.49 518.432 79.088Z" fill="#f17463"/>
<path d="M529.432 58.088H563.432V156.088H529.432V58.088Z" fill="white"/>
<path d="M612.432 79.088C612.432 90.686 603.03 100.088 591.432 100.088C579.834 100.088 570.432 90.686 570.432 79.088C570.432 67.49 579.834 58.088 591.432 58.088C603.03 58.088 612.432 67.49 612.432 79.088Z" fill="#f17463"/>
</svg>
